<svg width="18" height="16" viewBox="0 0 18 16" fill="none" xmlns="http://www.w3.org/2000/svg">
<path fill-rule="evenodd" clip-rule="evenodd" d="M12.6001 4.2C12.6001 6.10538 10.9884 7.65 9.00015 7.65C7.01192 7.65 5.40015 6.10538 5.40015 4.2C5.40015 2.29462 7.01192 0.75 9.00015 0.75C10.9884 0.75 12.6001 2.29462 12.6001 4.2ZM11.4001 4.2C11.4001 5.47025 10.3256 6.5 9.00015 6.5C7.67466 6.5 6.60015 5.47025 6.60015 4.2C6.60015 2.92974 7.67466 1.9 9.00015 1.9C10.3256 1.9 11.4001 2.92974 11.4001 4.2Z" fill="#4F378A"/>
<path d="M9.00015 9.375C5.11552 9.375 1.80571 11.5763 0.544922 14.6604C0.852059 14.9527 1.1756 15.2292 1.51412 15.4884C2.45296 12.6569 5.39818 10.525 9.00015 10.525C12.6021 10.525 15.5473 12.6569 16.4862 15.4884C16.8247 15.2292 17.1482 14.9527 17.4554 14.6604C16.1946 11.5763 12.8848 9.375 9.00015 9.375Z" fill="#4F378A"/>
</svg>
